HIERARCHY
ROOT root
{
	OFFSET 0.000000 0.000000 0.000000
	CHANNELS 6 Xposition Yposition Zposition Zrotation Yrotation Xrotation
	JOINT lhip
	{
		OFFSET 0.058581 -0.082280 -0.017664
		CHANNELS 3 Zrotation Yrotation Xrotation
		JOINT lknee
		{
			OFFSET 0.043451 -0.386469 0.008037
			CHANNELS 3 Zrotation Yrotation Xrotation
			JOINT lankle
			{
				OFFSET -0.014790 -0.426874 -0.037428
				CHANNELS 3 Zrotation Yrotation Xrotation
				JOINT ltoe
				{
					OFFSET 0.041054 -0.060286 0.122042
					CHANNELS 3 Zrotation Yrotation Xrotation
					End Site
					{
						OFFSET 0.000000 0.000000 0.000000
					}
				}
			}
		}
	}
	JOINT rhip
	{
		OFFSET -0.060310 -0.090513 -0.013543
		CHANNELS 3 Zrotation Yrotation Xrotation
		JOINT rknee
		{
			OFFSET -0.043257 -0.383688 -0.004843
			CHANNELS 3 Zrotation Yrotation Xrotation
			JOINT rankle
			{
				OFFSET 0.019056 -0.420046 -0.034562
				CHANNELS 3 Zrotation Yrotation Xrotation
				JOINT rtoe
				{
					OFFSET -0.034840 -0.062106 0.130323
					CHANNELS 3 Zrotation Yrotation Xrotation
					End Site
					{
						OFFSET 0.000000 0.000000 0.000000
					}
				}
			}
		}
	}
	JOINT lowerback
	{
		OFFSET 0.004439 0.124404 -0.038385
		CHANNELS 3 Zrotation Yrotation Xrotation
		JOINT upperback
		{
			OFFSET 0.004488 0.137956 0.026820
			CHANNELS 3 Zrotation Yrotation Xrotation
			JOINT chest
			{
				OFFSET -0.002265 0.056032 0.002855
				CHANNELS 3 Zrotation Yrotation Xrotation
				JOINT lowerneck
				{
					OFFSET -0.013390 0.211636 -0.033468
					CHANNELS 3 Zrotation Yrotation Xrotation
					JOINT upperneck
					{
						OFFSET 0.010113 0.088937 0.050410
						CHANNELS 3 Zrotation Yrotation Xrotation
						End Site
						{
							OFFSET 0.000000 0.000000 0.000000
						}
					}
				}
				JOINT lclavicle
				{
					OFFSET 0.071702 0.114000 -0.018898
					CHANNELS 3 Zrotation Yrotation Xrotation
					JOINT lshoulder
					{
						OFFSET 0.122921 0.045205 -0.019046
						CHANNELS 3 Zrotation Yrotation Xrotation
						JOINT lelbow
						{
							OFFSET 0.255332 -0.015649 -0.022946
							CHANNELS 3 Zrotation Yrotation Xrotation
							JOINT lwrist
							{
								OFFSET 0.265709 0.012698 -0.007375
								CHANNELS 3 Zrotation Yrotation Xrotation
								End Site
								{
									OFFSET 0.000000 0.000000 0.000000
								}
							}
						}
					}
				}
				JOINT rclavicle
				{
					OFFSET -0.082954 0.112472 -0.023707
					CHANNELS 3 Zrotation Yrotation Xrotation
					JOINT rshoulder
					{
						OFFSET -0.113228 0.046853 -0.008472
						CHANNELS 3 Zrotation Yrotation Xrotation
						JOINT relbow
						{
							OFFSET -0.260127 -0.014369 -0.031269
							CHANNELS 3 Zrotation Yrotation Xrotation
							JOINT rwrist
							{
								OFFSET -0.269108 0.006794 -0.006027
								CHANNELS 3 Zrotation Yrotation Xrotation
								End Site
								{
									OFFSET 0.000000 0.000000 0.000000
								}
							}
						}
					}
				}
			}
		}
	}
}
MOTION
Frames: 10
Frame Time: 0.033333
-0.274058 0.795746 1.068154 62.397245 -1.314137 92.413729 -5.142317 -5.453923 -1.320785 -0.565851 -10.516396 9.766140 -1.235565 9.433285 22.814494 0.000000 -0.000000 0.000000 5.360303 -0.046814 -9.279717 -1.062585 4.645748 6.381398 2.929632 -9.273815 30.571434 0.000000 -0.000000 0.000000 -0.673410 2.946588 -5.246526 -0.265739 -0.263078 6.671867 -0.366734 3.933708 -6.935753 -6.032350 -2.828100 18.994786 4.977238 -3.308433 -3.988057 0.421161 -2.296753 -13.691612 -5.058258 -10.289010 -8.272684 13.221985 -2.997864 -24.047857 -21.503115 -11.440342 18.619207 -5.887629 8.525544 -8.769069 -2.715801 14.681668 -18.872205 -7.843774 -4.172129 -25.424415 22.611466 3.576915 17.180590 
-0.272096 0.793907 1.067869 62.135216 -1.468273 92.451245 -5.361108 -5.472068 -1.030182 -0.610164 -10.870626 9.575132 -0.904925 9.905618 22.689272 0.000000 -0.000000 0.000000 5.099478 0.010605 -8.853160 -1.016407 4.745776 5.880175 3.417899 -9.651767 30.802141 0.000000 -0.000000 0.000000 -0.752232 3.062255 -5.463038 -0.304378 -0.101585 6.290595 -0.344412 3.947608 -6.543786 -6.052878 -1.261521 18.971622 5.025246 -1.453817 -3.897059 0.628710 -2.541939 -13.762777 -5.449901 -9.873691 -7.640936 13.216263 -2.991399 -23.351552 -21.045230 -12.022666 17.310241 -6.067211 8.454029 -8.850468 -2.310272 14.184661 -18.067621 -7.762882 -3.422733 -24.765727 22.957966 3.968256 15.515436 
-0.270280 0.792210 1.067697 61.937347 -1.575206 92.402408 -5.588042 -5.624255 -0.861944 -0.626009 -10.798411 9.692692 -0.549177 10.255153 22.768804 0.000000 -0.000000 0.000000 5.143036 -0.008285 -8.386918 -1.159896 4.716319 5.465088 3.217862 -9.789834 30.730675 0.000000 -0.000000 0.000000 -0.815265 3.211957 -5.466336 -0.332514 -0.099774 6.117002 -0.241284 3.983768 -6.653109 -6.008640 0.113144 19.133446 4.796833 0.250686 -3.712580 0.463659 -2.679687 -13.589571 -5.297683 -9.690961 -7.693641 12.848051 -2.975131 -23.414323 -20.715840 -12.039302 17.268904 -6.014062 8.325597 -8.524500 -2.542333 14.221595 -18.132344 -7.595744 -3.418165 -24.558778 23.269662 3.656508 15.639355 
-0.267424 0.789935 1.067370 61.730080 -1.673920 92.625650 -5.667075 -5.536718 -0.675151 -0.436685 -10.912561 9.221396 -0.877880 10.377142 23.048037 0.000000 -0.000000 0.000000 5.571957 0.013800 -8.422414 -1.572182 4.208340 5.593552 2.455508 -10.033143 30.109748 0.000000 -0.000000 0.000000 -0.733416 3.152374 -5.854520 -0.549940 -0.052807 5.740104 -0.294497 4.128703 -6.501939 -5.939915 1.716053 18.857817 4.908913 1.374033 -3.471512 0.559152 -2.661279 -13.837122 -5.361267 -9.764226 -7.827379 12.842833 -2.294639 -22.975328 -20.624373 -12.588704 18.406968 -5.842824 8.261549 -8.699734 -2.529957 14.388862 -18.491872 -7.556346 -3.862147 -24.851954 23.333410 3.876485 16.343237 
-0.266037 0.788744 1.067418 61.905989 -1.872988 92.640876 -5.722727 -5.652030 -0.571921 -0.458175 -11.450779 9.106310 -1.328538 10.053531 23.806079 0.000000 -0.000000 0.000000 5.710975 0.176076 -8.311180 -1.794678 3.936716 5.584338 1.401562 -10.336701 30.109716 0.000000 -0.000000 0.000000 -0.912159 3.035407 -6.050579 -0.653123 -0.117716 6.075023 -0.330702 4.123498 -6.800300 -5.779344 2.296682 18.950872 5.006131 1.795720 -3.455435 0.553479 -2.672353 -13.665038 -5.252524 -9.540045 -7.748151 12.820292 -2.464178 -23.103508 -19.932363 -12.778142 18.277607 -5.816267 8.110070 -8.572744 -2.317183 14.348601 -18.320972 -7.568723 -3.807342 -25.071015 22.597808 4.247519 16.084244 
-0.264345 0.787009 1.067625 62.228892 -2.081052 92.660117 -5.710837 -5.765089 -0.291711 -0.427139 -12.081177 8.569827 -1.975249 9.618285 24.620305 0.000000 -0.000000 0.000000 5.995157 0.109555 -8.176139 -2.046942 3.709620 5.532368 0.395135 -10.798327 29.807285 0.000000 -0.000000 0.000000 -1.152393 2.922674 -6.102685 -0.789195 -0.150963 5.892742 -0.198275 3.911921 -6.731633 -5.533266 2.995511 19.118988 4.898528 2.310691 -3.865377 0.394285 -2.630026 -14.067019 -5.181202 -9.425733 -7.601441 13.113730 -2.338530 -23.250895 -19.273606 -13.111503 19.132219 -6.023500 7.901344 -8.901255 -1.729662 14.419403 -17.642542 -7.727242 -3.677502 -24.943518 22.537120 4.577801 15.273912 
-0.262861 0.785515 1.068095 62.542794 -2.147032 92.724800 -5.552606 -5.691484 -0.242662 -0.414070 -12.337163 8.384117 -2.589725 9.523087 25.141096 0.000000 -0.000000 0.000000 6.245752 0.121689 -8.033750 -2.287591 3.658436 5.513588 -0.204398 -10.899252 29.624215 0.000000 -0.000000 0.000000 -1.144831 2.799394 -6.015307 -0.928201 -0.184259 5.381215 -0.203108 3.858797 -6.627409 -5.408684 3.633469 19.023213 4.906416 2.799021 -3.790823 0.106307 -2.700263 -14.306668 -4.806226 -9.059236 -7.469151 13.164434 -2.663534 -22.730479 -18.070950 -13.557049 19.579859 -5.811748 7.957659 -9.000134 -2.229345 14.168006 -17.791522 -7.097836 -3.994241 -24.485518 21.556459 4.919249 16.267167 
-0.260968 0.785035 1.068346 62.715044 -2.337982 93.028752 -5.749073 -5.903868 -0.478828 -0.338678 -12.462325 8.328208 -2.615499 9.328838 25.583768 0.000000 -0.000000 0.000000 5.955741 -0.008074 -8.307930 -2.171856 3.697384 5.527727 -0.334603 -10.899185 29.996046 0.000000 -0.000000 0.000000 -1.089389 2.878353 -6.444586 -1.110806 -0.112715 5.410177 -0.258563 3.988774 -6.604186 -5.560686 3.652299 18.963168 4.759760 3.220602 -3.726886 -0.106760 -2.815044 -14.444453 -4.657274 -9.003492 -7.379559 13.253387 -3.025673 -22.861282 -17.088367 -13.859757 19.953129 -6.034244 7.685883 -8.963116 -2.539886 13.689506 -17.957515 -6.833498 -4.083787 -24.692751 21.148097 5.120491 16.553478 
-0.259759 0.784563 1.068838 62.799650 -2.358982 93.314046 -5.809749 -5.904398 -0.604684 -0.116797 -12.281057 8.010162 -2.784688 9.207903 25.973229 0.000000 -0.000000 0.000000 5.849258 -0.027103 -8.506168 -2.151392 3.747516 5.356730 -0.186604 -10.794461 30.311301 0.000000 -0.000000 0.000000 -0.718484 2.959349 -6.626918 -1.352049 -0.064762 5.113183 -0.427839 3.961285 -6.438311 -5.785916 4.071951 19.018452 4.800403 3.478158 -3.907604 0.092651 -2.830169 -14.402877 -4.555024 -8.821392 -7.857327 13.416313 -2.922171 -23.408116 -18.206410 -13.417616 20.546027 -6.288835 7.508808 -9.027863 -2.668951 13.721761 -18.872700 -7.299438 -4.493303 -24.811733 22.093112 4.599172 17.753708 
-0.258527 0.783629 1.069267 63.415408 -2.565424 93.572572 -5.512636 -5.782189 -0.606228 -0.324532 -12.474203 7.207518 -3.657167 8.689324 27.060910 0.000000 -0.000000 0.000000 5.954770 0.004557 -8.877877 -2.367298 3.312397 5.771494 -0.867883 -11.174029 29.862426 0.000000 -0.000000 0.000000 -0.966362 2.772783 -6.275410 -1.350893 -0.049114 4.059560 -0.261943 3.670598 -6.269662 -6.124052 4.407604 19.146167 4.833384 3.916005 -4.185970 0.407296 -2.524463 -14.374161 -4.620230 -8.826731 -7.629634 13.251561 -2.516909 -23.383521 -18.059406 -13.395341 20.024084 -6.566603 6.889964 -9.065679 -2.916961 13.967112 -18.667520 -7.278933 -4.282283 -24.553302 22.298918 4.679292 16.882092 
